<svg width="85" height="12" viewBox="0 0 85 12" fill="none" xmlns="http://www.w3.org/2000/svg">
<path d="M85 6L75 0.226497V11.7735L85 6ZM1.93182 7C2.4841 7 2.93182 6.55228 2.93182 6C2.93182 5.44772 2.4841 5 1.93182 5V7ZM5.79545 5C5.24317 5 4.79545 5.44772 4.79545 6C4.79545 6.55228 5.24317 7 5.79545 7V5ZM9.65909 7C10.2114 7 10.6591 6.55228 10.6591 6C10.6591 5.44772 10.2114 5 9.65909 5V7ZM13.5227 5C12.9704 5 12.5227 5.44772 12.5227 6C12.5227 6.55228 12.9704 7 13.5227 7V5ZM17.3864 7C17.9387 7 18.3864 6.55228 18.3864 6C18.3864 5.44772 17.9387 5 17.3864 5V7ZM21.25 5C20.6977 5 20.25 5.44772 20.25 6C20.25 6.55228 20.6977 7 21.25 7V5ZM25.1136 7C25.6659 7 26.1136 6.55228 26.1136 6C26.1136 5.44772 25.6659 5 25.1136 5V7ZM28.9773 5C28.425 5 27.9773 5.44772 27.9773 6C27.9773 6.55228 28.425 7 28.9773 7V5ZM32.8409 7C33.3932 7 33.8409 6.55228 33.8409 6C33.8409 5.44772 33.3932 5 32.8409 5V7ZM36.7045 5C36.1523 5 35.7045 5.44772 35.7045 6C35.7045 6.55228 36.1523 7 36.7045 7V5ZM40.5682 7C41.1205 7 41.5682 6.55228 41.5682 6C41.5682 5.44772 41.1205 5 40.5682 5V7ZM44.4318 5C43.8795 5 43.4318 5.44772 43.4318 6C43.4318 6.55228 43.8795 7 44.4318 7V5ZM48.2955 7C48.8477 7 49.2955 6.55228 49.2955 6C49.2955 5.44772 48.8477 5 48.2955 5V7ZM52.1591 5C51.6068 5 51.1591 5.44772 51.1591 6C51.1591 6.55228 51.6068 7 52.1591 7V5ZM56.0227 7C56.575 7 57.0227 6.55228 57.0227 6C57.0227 5.44772 56.575 5 56.0227 5V7ZM59.8864 5C59.3341 5 58.8864 5.44772 58.8864 6C58.8864 6.55228 59.3341 7 59.8864 7V5ZM63.75 7C64.3023 7 64.75 6.55228 64.75 6C64.75 5.44772 64.3023 5 63.75 5V7ZM67.6136 5C67.0613 5 66.6136 5.44772 66.6136 6C66.6136 6.55228 67.0613 7 67.6136 7V5ZM71.4773 7C72.0296 7 72.4773 6.55228 72.4773 6C72.4773 5.44772 72.0296 5 71.4773 5V7ZM75.3409 5C74.7886 5 74.3409 5.44772 74.3409 6C74.3409 6.55228 74.7886 7 75.3409 7V5ZM79.2046 7C79.7568 7 80.2046 6.55228 80.2046 6C80.2046 5.44772 79.7568 5 79.2046 5V7ZM83.0682 5C82.5159 5 82.0682 5.44772 82.0682 6C82.0682 6.55228 82.5159 7 83.0682 7V5ZM0 7H1.93182V5H0V7ZM5.79545 7H9.65909V5H5.79545V7ZM13.5227 7H17.3864V5H13.5227V7ZM21.25 7H25.1136V5H21.25V7ZM28.9773 7H32.8409V5H28.9773V7ZM36.7045 7H40.5682V5H36.7045V7ZM44.4318 7H48.2955V5H44.4318V7ZM52.1591 7H56.0227V5H52.1591V7ZM59.8864 7H63.75V5H59.8864V7ZM67.6136 7H71.4773V5H67.6136V7ZM75.3409 7H79.2046V5H75.3409V7Z" fill="#7C2A90"/>
</svg>
