<svg width="41" height="43" viewBox="0 0 41 43" fill="none" xmlns="http://www.w3.org/2000/svg">
<path d="M26.5 10.5238H19.5C18.7044 10.5238 17.9413 10.8248 17.3787 11.3606C16.8161 11.8965 16.5 12.6232 16.5 13.3809C16.5 14.1387 16.8161 14.8654 17.3787 15.4013C17.9413 15.9371 18.7044 16.2381 19.5 16.2381H21.5C22.2957 16.2381 23.0587 16.5391 23.6213 17.0749C24.1839 17.6107 24.5 18.3375 24.5 19.0952C24.5 19.853 24.1839 20.5797 23.6213 21.1155C23.0587 21.6514 22.2957 21.9524 21.5 21.9524H14.5" stroke="white" stroke-width="2" stroke-miterlimit="10"/>
<path d="M20.5 25.7619V21.9524" stroke="white" stroke-width="2" stroke-miterlimit="10"/>
<path d="M20.5 10.5239V6.71436" stroke="white" stroke-width="2" stroke-miterlimit="10"/>
<path d="M2.5 23.8571L20.5 41L38.5 23.8571H32.5V1H8.5V23.8571H2.5Z" stroke="white" stroke-width="2" stroke-miterlimit="10"/>
</svg>
