<svg width="26" height="26" viewBox="0 0 26 26" fill="none" xmlns="http://www.w3.org/2000/svg">
<path d="M14.9 17V17.8333H11.1V17V16.5H10.6H2.212H1.712V17V25V25.5H2.212H23.8H24.3V25V17V16.5H23.8H15.4H14.9V17ZM25.5 6.33333V5.83333H25H18.3V3.66667V3.4748L18.1716 3.33218L15.7716 0.665518L15.6227 0.5H15.4H10.6H10.3773L10.2284 0.665518L7.82835 3.33218L7.7 3.4748V3.66667V5.83333H1H0.5V6.33333V15.6667V16.1667H1H10.6H11.1V15.6667V13.5H14.9V15.6667V16.1667H15.4H25H25.5V15.6667V6.33333ZM14.9 5.83333H11.1V4.16667H14.9V5.83333Z" fill="url(#paint0_linear_33_185)" stroke="white"/>
<defs>
<linearGradient id="paint0_linear_33_185" x1="13" y1="1" x2="13" y2="25" gradientUnits="userSpaceOnUse">
<stop stop-color="#D49123"/>
<stop offset="1" stop-color="#D49123" stop-opacity="0"/>
</linearGradient>
</defs>
</svg>
