<svg width="26" height="26" viewBox="0 0 26 26" fill="none" xmlns="http://www.w3.org/2000/svg">
<path d="M21.5183 5.89865V5.66089H20.9084V5.96369L20.8836 5.98164L20.9084 6.05117V6.18126L17.0923 18.5155L17.5065 19L20.9084 7.94874V19.8904H21.5183V7.95995L24.9861 18.9125L25.5259 18.5379L21.5183 5.89865ZM4.98067 5.66089H4.3687V5.88294L0.47641 18.5469L1.02244 18.9237L4.3687 7.94874V19.8904H4.98067V7.95995L8.3805 18.9439L8.92035 18.5671L4.98067 5.89865V5.66089Z" fill="white"/>
<path d="M8.72886 23.0974L8.73139 23.0961C9.27806 22.819 9.76889 22.568 10.1777 22.2807C10.5507 22.0185 10.8248 21.7462 10.9952 21.4337C11.0319 20.8895 11.1174 20.2553 11.2616 19.6532C11.3978 19.0844 11.5958 18.5032 11.882 18.0544V8.07205C11.3359 7.63575 11.1629 6.87152 11.1629 5.98617C11.1629 5.40731 11.2392 4.73352 11.3861 4.10965C11.4977 3.63593 11.6579 3.15704 11.8782 2.76528C11.7561 2.53839 11.6924 2.28078 11.6924 2.01607C11.6924 1.21997 12.2955 0.5 13.1258 0.5C13.9562 0.5 14.5593 1.21997 14.5593 2.01607C14.5593 2.2824 14.4949 2.53953 14.3719 2.76614C14.592 3.15774 14.752 3.63628 14.8635 4.10965C15.0105 4.73352 15.0867 5.40731 15.0867 5.98617C15.0867 6.87152 14.9137 7.63575 14.3676 8.07205V18.0542C14.6559 18.5057 14.8545 19.0907 14.9907 19.6627C15.135 20.2687 15.2201 20.9066 15.2567 21.453C15.4273 21.7697 15.7048 22.047 16.0654 22.3061C16.4439 22.5781 16.8802 22.8073 17.327 23.0381C17.4823 23.0826 17.6268 23.159 17.7526 23.264C17.84 23.3217 17.9853 23.4409 18.061 23.6496C18.1553 23.8317 18.2072 24.0378 18.2022 24.2536C18.1985 24.9011 17.7037 25.5 17.0099 25.5H9.23562C8.53932 25.5 8.04347 24.8969 8.04329 24.2467L8.72886 23.0974ZM8.72886 23.0974L8.58113 23.1733C8.31004 23.3122 8.19597 23.5315 8.15703 23.7141C8.0817 23.8812 8.04321 24.0632 8.04329 24.2464L8.72886 23.0974Z" fill="#D49123" stroke="white"/>
<path d="M21.203 3.5999L21.2023 3.5999C20.9685 3.60023 20.7393 3.65724 20.5319 3.76469C20.3247 3.87202 20.1457 4.0262 20.0058 4.21305C19.866 4.39978 19.768 4.61527 19.7166 4.84328C19.6946 4.94055 19.6812 5.03947 19.6765 5.13876C19.2885 5.29837 18.8656 5.37635 18.3595 5.37635C18.0101 5.37635 17.6649 5.3381 17.3472 5.26508C15.9597 4.73093 14.8258 4.43429 12.9837 4.43429C11.0848 4.43429 10.0439 4.75802 8.75237 5.23182C8.41057 5.30663 7.99574 5.35168 7.62019 5.35168C7.1075 5.35168 6.68059 5.26981 6.28862 5.10214C6.23372 4.29708 5.60642 3.59766 4.76434 3.59766C3.88246 3.59766 3.23615 4.36473 3.23615 5.21691C3.23615 5.87042 3.60979 6.48198 4.22058 6.72674C5.22506 7.36772 6.34549 7.6728 7.62225 7.6728C8.55968 7.6728 9.48689 7.5058 10.3109 7.1858L10.3109 7.18581L10.3136 7.18474L10.5522 7.09049C11.2927 6.8591 11.9067 6.73523 12.9878 6.73523C14.1789 6.73523 14.7121 6.88366 15.5194 7.13638L15.6881 7.20032C15.6883 7.20039 15.6884 7.20046 15.6886 7.20054C16.5082 7.51319 17.4323 7.67504 18.3657 7.67504C19.6806 7.67504 20.8298 7.35631 21.8364 6.69578C22.3991 6.42699 22.7374 5.84442 22.7374 5.21915L22.7374 5.21414C22.7289 4.36662 22.0854 3.5999 21.203 3.5999Z" fill="#D49123" stroke="white"/>
<path d="M0.784222 19.5352L0.784292 19.5352C3.01775 21.5121 6.20383 21.5483 8.47418 19.6216L0.784222 19.5352ZM0.784222 19.5352L0.323622 19.1278C0.25393 19.0646 0.233149 18.9667 0.263136 18.8746C0.292902 18.7832 0.356427 18.7388 0.426968 18.7388H8.95539C9.02635 18.7388 9.09049 18.784 9.11974 18.877C9.14923 18.9707 9.12625 19.0677 9.05524 19.1281C9.05522 19.1281 9.0552 19.1282 9.05518 19.1282L8.47425 19.6215L0.784222 19.5352ZM17.4022 19.5352L17.4022 19.5352L16.9416 19.1278C16.9415 19.1277 16.9413 19.1276 16.9412 19.1275C16.8709 19.0643 16.8502 18.9667 16.8802 18.8749C16.9101 18.7836 16.9741 18.7388 17.0449 18.7388H25.5733C25.6443 18.7388 25.7084 18.784 25.7377 18.877C25.7672 18.9707 25.7442 19.0678 25.6731 19.1282L25.0922 19.6215C22.8218 21.5483 19.6357 21.5121 17.4022 19.5352Z" fill="#D49123" stroke="white" stroke-width="0.5"/>
</svg>
