<svg width="42" height="42" viewBox="0 0 42 42" fill="none" xmlns="http://www.w3.org/2000/svg">
<path d="M28.2762 26.4476H13.7238H1V1H41V26.4476H35.5523" stroke="white" stroke-width="2" stroke-miterlimit="10"/>
<path d="M15.5524 19.1905H21.9143C22.6384 19.1855 23.3312 18.8943 23.8414 18.3805C24.3517 17.8666 24.6381 17.1718 24.6381 16.4477C24.6381 15.7253 24.3511 15.0325 23.8403 14.5216C23.3295 14.0108 22.6367 13.7239 21.9143 13.7239H20.0095C19.2871 13.7239 18.5943 13.4369 18.0835 12.9261C17.5727 12.4153 17.2857 11.7224 17.2857 11.0001C17.2857 10.2777 17.5727 9.58484 18.0835 9.07403C18.5943 8.56322 19.2871 8.27625 20.0095 8.27625H26.3714" stroke="white" stroke-width="2" stroke-miterlimit="10"/>
<path d="M21 4.63806V8.27615" stroke="white" stroke-width="2" stroke-miterlimit="10"/>
<path d="M21 19.1904V22.8095" stroke="white" stroke-width="2" stroke-miterlimit="10"/>
<path d="M31.9142 41C34.2433 38.6713 35.552 35.5127 35.5523 32.2191V24.6C35.5423 23.6418 35.1546 22.7262 34.4734 22.0521C33.7922 21.3781 32.8726 21 31.9142 21.0001C31.4358 20.9975 30.9616 21.0899 30.519 21.2718C30.0765 21.4538 29.6744 21.7217 29.3361 22.06C28.9978 22.3983 28.7299 22.8004 28.5479 23.2429C28.366 23.6855 28.2736 24.1597 28.2762 24.6381V30.0858L27.8952 30.2762C26.9165 30.7672 26.0935 31.5206 25.5184 32.4524C24.9432 33.3841 24.6384 34.4574 24.6381 35.5524" stroke="white" stroke-width="2" stroke-miterlimit="10"/>
<path d="M13.7238 26.4475V32.1618C13.7241 35.4554 15.0328 38.614 17.3619 40.9427" stroke="white" stroke-width="2" stroke-miterlimit="10"/>
</svg>
