<svg width="20" height="20" viewBox="0 0 20 20" fill="none" xmlns="http://www.w3.org/2000/svg">
<path d="M10.1176 0.588196C8.25617 0.588196 6.4365 1.14019 4.88874 2.17436C3.34099 3.20854 2.13466 4.67846 1.4223 6.39823C0.70995 8.11801 0.523565 10.0104 0.88672 11.8361C1.24988 13.6618 2.14626 15.3388 3.46252 16.6551C4.77878 17.9713 6.45579 18.8677 8.2815 19.2309C10.1072 19.594 11.9996 19.4077 13.7194 18.6953C15.4391 17.9829 16.9091 16.7766 17.9432 15.2289C18.9774 13.6811 19.5294 11.8614 19.5294 9.99996C19.5294 8.76399 19.286 7.54012 18.813 6.39823C18.34 5.25635 17.6467 4.2188 16.7728 3.34484C15.8988 2.47087 14.8613 1.77761 13.7194 1.30462C12.5775 0.831638 11.3536 0.588196 10.1176 0.588196ZM14.1647 7.75055L9.86352 13.3976C9.77584 13.5115 9.66325 13.6038 9.53436 13.6674C9.40547 13.7311 9.26373 13.7643 9.11999 13.7647C8.97703 13.7654 8.83578 13.7336 8.70695 13.6717C8.57812 13.6097 8.4651 13.5192 8.37646 13.407L6.07999 10.48C6.00398 10.3823 5.94794 10.2707 5.91508 10.1514C5.88222 10.0321 5.87318 9.90746 5.88848 9.78467C5.90377 9.66188 5.9431 9.5433 6.00422 9.43571C6.06534 9.32812 6.14706 9.23362 6.2447 9.15761C6.4419 9.00409 6.692 8.9352 6.93999 8.96609C7.06278 8.98139 7.18136 9.02072 7.28895 9.08184C7.39654 9.14296 7.49104 9.22467 7.56705 9.32231L9.10117 11.28L12.6588 6.57408C12.7342 6.4752 12.8283 6.39214 12.9358 6.32964C13.0433 6.26714 13.1621 6.22643 13.2853 6.20982C13.4085 6.19322 13.5338 6.20105 13.654 6.23286C13.7742 6.26468 13.887 6.31986 13.9859 6.39525C14.0848 6.47065 14.1678 6.56478 14.2303 6.67227C14.2928 6.77977 14.3335 6.89852 14.3501 7.02175C14.3667 7.14498 14.3589 7.27027 14.3271 7.39047C14.2953 7.51068 14.2401 7.62344 14.1647 7.72231V7.75055Z" fill="#00AF30"/>
</svg>
