<svg width="34" height="41" viewBox="0 0 34 41" fill="none" xmlns="http://www.w3.org/2000/svg">
<path d="M8.09241 18.1733C11.3881 18.1733 14.5492 19.7234 16.8824 22.4835C19.2156 25.2436 20.5305 28.9885 20.5386 32.8967" stroke="white" stroke-width="2" stroke-miterlimit="10"/>
<path d="M33 7.33882C33 4.95132 31.3713 3.01587 29.3622 3.01587C27.3532 3.01587 25.7245 4.95132 25.7245 7.33882V12.5119C25.7245 14.8994 27.3532 16.8349 29.3622 16.8349C31.3713 16.8349 33 14.8994 33 12.5119V7.33882Z" stroke="white" stroke-width="2" stroke-miterlimit="10"/>
<path d="M25.7093 5.6025C25.7093 3.21499 24.0806 1.27954 22.0715 1.27954C20.0625 1.27954 18.4338 3.21499 18.4338 5.6025V12.4939C18.4338 14.8814 20.0625 16.8169 22.0715 16.8169C24.0806 16.8169 25.7093 14.8814 25.7093 12.4939V5.6025Z" stroke="white" stroke-width="2" stroke-miterlimit="10"/>
<path d="M16.3136 16.4189C16.9605 16.0916 17.5128 15.5477 17.903 14.8537C18.2931 14.1598 18.504 13.3459 18.5099 12.5119V5.60244C18.5422 5.01243 18.472 4.42086 18.3038 3.86429C18.1356 3.30773 17.8728 2.798 17.5319 2.36663C17.1909 1.93525 16.779 1.59141 16.3215 1.35634C15.864 1.12128 15.3708 1 14.8722 1C14.3736 1 13.8803 1.12128 13.4229 1.35634C12.9654 1.59141 12.5535 1.93525 12.2125 2.36663C11.8715 2.798 11.6088 3.30773 11.4406 3.86429C11.2724 4.42086 11.2022 5.01243 11.2344 5.60244V9.72643" stroke="white" stroke-width="2" stroke-miterlimit="10"/>
<path d="M3.88275 12.6205V5.60244C3.85052 5.01243 3.92068 4.42086 4.08891 3.86429C4.25714 3.30773 4.51985 2.798 4.86081 2.36663C5.20177 1.93525 5.61372 1.59141 6.07119 1.35634C6.52866 1.12128 7.02193 1 7.52051 1C8.01908 1 8.51235 1.12128 8.96982 1.35634C9.42729 1.59141 9.83924 1.93525 10.1802 2.36663C10.5212 2.798 10.7839 3.30773 10.9521 3.86429C11.1203 4.42086 11.1905 5.01243 11.1583 5.60244V9.72643" stroke="white" stroke-width="2" stroke-miterlimit="10"/>
<path d="M8.24501 40.9999V37.5452L7.10106 36.3875C3.18113 31.7209 1 27.1267 1 20.5247C0.998038 17.6676 1.94619 14.9249 3.63871 12.8917C5.34833 10.8713 7.66175 9.73361 10.0753 9.72632H13.4309C14.3735 9.72632 15.2774 10.1703 15.9439 10.9607C16.6104 11.7511 16.9848 12.823 16.9848 13.9407C16.9868 14.4957 16.8963 15.0457 16.7187 15.5591C16.541 16.0725 16.2795 16.5392 15.9493 16.9325C15.6191 17.3258 15.2266 17.6378 14.7945 17.8507C14.3623 18.0637 13.8989 18.1733 13.4309 18.1733H8.09249" stroke="white" stroke-width="2" stroke-miterlimit="10"/>
<path d="M25.7245 41V37.5452L26.8684 36.3876C30.7884 31.721 32.9695 27.1267 32.9695 20.5247V11.8427" stroke="white" stroke-width="2" stroke-miterlimit="10"/>
</svg>
