<svg width="34" height="41" viewBox="0 0 34 41" fill="none" xmlns="http://www.w3.org/2000/svg">
<path d="M13.4506 1H20.5679C21.9824 1 23.339 1.54877 24.3392 2.52559C25.3393 3.50241 25.9013 4.82727 25.9013 6.2087V14.8838C25.9013 16.0246 25.6709 17.1541 25.2233 18.2078C24.7758 19.2615 24.1198 20.2187 23.293 21.0245C22.4662 21.8303 21.4848 22.4689 20.4049 22.9038C19.3251 23.3387 18.168 23.5613 17 23.5589C14.6441 23.5589 12.3848 22.6449 10.719 21.018C9.05313 19.3911 8.11728 17.1846 8.11728 14.8838V6.2087C8.11728 4.82727 8.67918 3.50241 9.67938 2.52559C10.6796 1.54877 12.0361 1 13.4506 1Z" stroke="white" stroke-width="1.91" stroke-miterlimit="10"/>
<path d="M8.11728 7.95093H25.9013C25.9013 8.63647 25.7627 9.31528 25.4935 9.94841C25.2243 10.5815 24.8298 11.1566 24.3326 11.6405C23.8354 12.1244 23.2452 12.5077 22.596 12.7684C21.9468 13.0291 21.2513 13.162 20.5493 13.1596H13.4506C12.0361 13.1596 10.6796 12.6109 9.67938 11.634C8.67918 10.6572 8.11728 9.33236 8.11728 7.95093Z" stroke="white" stroke-width="1.91" stroke-miterlimit="10"/>
<path d="M1 40.9275V39.1126C1.02453 34.9824 2.72047 31.0292 5.71787 28.1154C8.71526 25.2017 12.7709 23.5638 17 23.5591C21.242 23.5639 25.3088 25.2117 28.3083 28.1412C31.3078 31.0706 32.9951 35.0424 33 39.1852V41.0001" stroke="white" stroke-width="1.91" stroke-miterlimit="10"/>
<path d="M17 37.461C17.9852 37.461 18.7839 36.681 18.7839 35.7187C18.7839 34.7565 17.9852 33.9764 17 33.9764C16.0147 33.9764 15.216 34.7565 15.216 35.7187C15.216 36.681 16.0147 37.461 17 37.461Z" stroke="white" stroke-width="1.91" stroke-miterlimit="10"/>
<path d="M18.7839 40.9273V35.7186" stroke="white" stroke-width="1.91" stroke-miterlimit="10"/>
<path d="M8.11728 23.577L17 33.9763L25.8827 23.577" stroke="white" stroke-width="1.91" stroke-miterlimit="10"/>
</svg>
