<svg width="32" height="32" viewBox="0 0 32 32" fill="none" xmlns="http://www.w3.org/2000/svg">
<path d="M7 9.94806V28.0001H25V9.94806L17.266 3.62006C16.9087 3.32794 16.4615 3.16836 16 3.16836C15.5385 3.16836 15.0913 3.32794 14.734 3.62006L7 9.94806ZM18.532 2.07206L26.632 8.70006C26.7469 8.79373 26.8395 8.91177 26.9031 9.04564C26.9668 9.1795 26.9999 9.32584 27 9.47406V29.0001C27 29.2653 26.8946 29.5196 26.7071 29.7072C26.5196 29.8947 26.2652 30.0001 26 30.0001H6C5.73478 30.0001 5.48043 29.8947 5.29289 29.7072C5.10536 29.5196 5 29.2653 5 29.0001V9.47406C4.9999 9.326 5.03268 9.17976 5.09598 9.04591C5.15927 8.91206 5.2515 8.79393 5.366 8.70006L13.466 2.07206C14.1807 1.48732 15.0756 1.16785 15.999 1.16785C16.9224 1.16785 17.8173 1.48732 18.532 2.07206Z" fill="white"/>
<path d="M16 14C16.5304 14 17.0391 13.7893 17.4142 13.4142C17.7893 13.0391 18 12.5304 18 12C18 11.4696 17.7893 10.9609 17.4142 10.5858C17.0391 10.2107 16.5304 10 16 10C15.4696 10 14.9609 10.2107 14.5858 10.5858C14.2107 10.9609 14 11.4696 14 12C14 12.5304 14.2107 13.0391 14.5858 13.4142C14.9609 13.7893 15.4696 14 16 14ZM16 16C14.9391 16 13.9217 15.5786 13.1716 14.8284C12.4214 14.0783 12 13.0609 12 12C12 10.9391 12.4214 9.92172 13.1716 9.17157C13.9217 8.42143 14.9391 8 16 8C17.0609 8 18.0783 8.42143 18.8284 9.17157C19.5786 9.92172 20 10.9391 20 12C20 13.0609 19.5786 14.0783 18.8284 14.8284C18.0783 15.5786 17.0609 16 16 16Z" fill="white"/>
</svg>
