<svg width="42" height="42" viewBox="0 0 42 42" fill="none" xmlns="http://www.w3.org/2000/svg">
<path d="M17.3565 11.4637V12.0127C17.3565 16.8752 14.4951 20.8748 10.9734 20.8748C7.45166 20.8748 4.59027 16.8751 4.59027 12.0127C4.59027 11.8559 4.59027 11.6991 4.59027 11.4637" stroke="white" stroke-width="1.5" stroke-miterlimit="10"/>
<path d="M3.33647 7.89998C3.76206 1.30321 8.44384 1.22739 10.7848 1.60649C10.9976 1.68231 11.636 1.60649 11.8488 1.60649C16.105 0.999924 18.2331 6.15601 18.2331 8.43072C18.2331 9.26484 18.413 11.3011 17.3489 12.4385C17.3489 12.4385 14.7571 9.26484 14.6153 7.44497C14.6153 7.44497 6.5285 10.7054 5.96105 7.89989C5.96105 7.89989 5.39359 10.1746 4.89698 10.7813C4.89698 10.7813 4.63463 12.5252 4.63463 13.056C4.63479 13.0561 3.12367 10.7813 3.33647 7.89998Z" stroke="white" stroke-width="1.5" stroke-linecap="round" stroke-linejoin="round"/>
<path d="M21.525 20.9966C19.8971 17.8698 21.4697 15.5605 22.4084 12.9803C23.2597 10.5539 22.2666 9.26492 23.1177 6.08026C23.8981 2.97143 27.0193 1 30.4242 1C33.3326 1 34.6803 2.74397 34.6803 2.74397C36.8794 2.97143 38.5819 4.94286 38.6528 7.29348C38.8656 11.3881 39.2203 11.3881 40.4971 14.5727C41.3446 16.7329 41.1137 19.1492 39.8595 20.9977" stroke="white" stroke-width="1.5" stroke-linecap="round" stroke-linejoin="round"/>
<path d="M25.0329 12.5254C25.0329 17.0749 27.7285 20.487 30.9206 20.487C34.1127 20.487 36.8083 17.0749 36.8083 12.5254C36.8083 9.64404 35.7442 7.97589 33.6162 5.70117C31.4881 7.97589 25.1038 10.8573 25.1038 11.9947L25.0329 12.5254Z" stroke="white" stroke-width="1.5" stroke-miterlimit="10" stroke-linejoin="round"/>
<path d="M1 40.8294V27.998C1 25.1924 3.62649 22.9177 6.25298 22.9177C6.68464 23.3054 7.1163 23.6396 7.54811 23.9202" stroke="white" stroke-width="1.5" stroke-linecap="round" stroke-linejoin="round"/>
<path d="M34.2283 23.9785C34.6979 23.6863 35.1689 23.3326 35.6414 22.9176C38.2679 22.9176 40.8944 25.1923 40.8944 27.9979V40.8294" stroke="white" stroke-width="1.5" stroke-linecap="round" stroke-linejoin="round"/>
<path d="M32.9503 30.9419C32.3009 33.3527 30.5564 34.7132 28.5267 34.7132C26.4969 34.7132 24.753 33.3527 24.1036 30.9419" stroke="white" stroke-width="1.5" stroke-miterlimit="10"/>
<path d="M5.78709 41V39.5217C5.78709 37.4179 7.78325 35.7122 9.77941 35.7122C12.1532 37.816 14.527 37.816 16.9547 35.7122C18.9508 35.7122 20.947 37.4179 20.947 39.5217V41" stroke="white" stroke-width="1.5" stroke-linecap="round" stroke-linejoin="round"/>
<path d="M20.9472 41V39.5217C20.9472 37.4179 22.9434 35.7122 24.9395 35.7122C27.3133 37.816 29.6871 37.816 32.1149 35.7122C34.111 35.7122 36.1072 37.4179 36.1072 39.5217V41" stroke="white" stroke-width="1.5" stroke-linecap="round" stroke-linejoin="round"/>
<path d="M28.5272 24.3721C31.6102 25.5408 32.969 29.3419 33.0706 32.5859C34.2056 32.8486 35.3706 32.2535 36.1071 31.3399C35.3216 30.6288 34.7292 29.7052 34.3921 28.6656C34.9801 23.7827 32.7724 20.4956 28.5272 21.4279C24.2819 20.4956 22.0742 23.7827 22.6622 28.6656C22.3251 29.7052 21.7327 30.6288 20.9472 31.3399C21.6837 32.2535 22.8488 32.8486 23.9837 32.5859C24.0853 29.3421 25.444 25.5407 28.5272 24.3721Z" stroke="white" stroke-width="1.5" stroke-linecap="round" stroke-linejoin="round"/>
<path d="M18.5927 28.265C18.5989 28.3853 18.602 28.5064 18.6021 28.6284C18.7167 31.8106 16.4015 34.4922 13.4249 34.625C10.4483 34.4922 8.13312 31.8106 8.24778 28.6284C8.24778 28.5472 8.24914 28.4665 8.25193 28.3861" stroke="white" stroke-width="1.5" stroke-miterlimit="10"/>
<path d="M11.4804 25.7091C11.855 28.5775 15.0606 24.9666 15.0606 24.9666C15.4987 26.3088 18.5915 28.2651 18.5915 28.2651C19.4153 27.45 19.0111 25.8322 18.8884 25.2684C18.481 22.9548 16.4314 21.4027 14.2544 21.7593C13.9802 21.7828 13.7048 21.7828 13.4306 21.7593C11.6187 21.472 8.61936 21.6328 7.74967 25.7195C7.32543 27.7137 8.24755 28.2648 8.24755 28.2648C8.24755 28.2648 11.2508 23.9502 11.4804 25.7091Z" stroke="white" stroke-width="1.5" stroke-linecap="round" stroke-linejoin="round"/>
</svg>
