<svg width="18" height="17" viewBox="0 0 18 17" fill="none" xmlns="http://www.w3.org/2000/svg">
<path d="M9.92175 0.864053L9.92053 0.862923C9.39836 0.379026 8.59777 0.379025 8.0756 0.862922L8.07439 0.864055L0.80645 7.64434C0.208115 8.19457 0.535752 9.29496 1.43291 9.29496H2.41116V15.0994C2.41116 15.8542 3.00992 16.5 3.78072 16.5H6.38939C7.16019 16.5 7.75895 15.8542 7.75895 15.0994V11.0962H10.2372V15.0994C10.2372 15.8542 10.8359 16.5 11.6067 16.5H14.2154C14.9862 16.5 15.585 15.8542 15.585 15.0994V9.29496H16.5632C17.4388 9.29496 17.8146 8.20709 17.1875 7.6423L9.92175 0.864053Z" fill="#7C2A90" stroke="white"/>
</svg>
