<svg width="16" height="13" viewBox="0 0 16 13" fill="none" xmlns="http://www.w3.org/2000/svg">
<path d="M2.74946 0.5H2.75L13.25 0.5L13.2505 0.5C13.8469 0.500638 14.4187 0.73784 14.8404 1.15956C15.2622 1.58128 15.4994 2.15307 15.5 2.74947V2.75L15.5 10.25L15.5 10.2505C15.4994 10.8469 15.2622 11.4187 14.8404 11.8404C14.4187 12.2622 13.8469 12.4994 13.2505 12.5H13.25H2.75H2.74947C2.15307 12.4994 1.58128 12.2622 1.15956 11.8404C0.73784 11.4187 0.500638 10.8469 0.5 10.2505V10.25V2.75V2.74947C0.500638 2.15307 0.73784 1.58128 1.15956 1.15956C1.58128 0.73784 2.15307 0.500638 2.74946 0.5Z" fill="#7C2A90" stroke="white"/>
</svg>
