<svg width="16" height="15" viewBox="0 0 16 15" fill="none" xmlns="http://www.w3.org/2000/svg">
<path d="M10.3557 9.34633L10.3366 9.36439L10.3195 9.38436L9.34513 10.5196C7.49215 9.61512 5.77937 8.08077 4.76079 6.32994L5.94562 5.39336L5.96478 5.37821L5.98238 5.36127C6.33142 5.02516 6.44365 4.54089 6.29583 4.10415L6.29591 4.10412L6.29282 4.09551C6.02514 3.34984 5.88667 2.54769 5.88667 1.715C5.88667 1.01461 5.27727 0.5 4.61667 0.5H1.92556C1.65978 0.5 1.32634 0.552808 1.04158 0.729563C0.729495 0.923285 0.5 1.25565 0.5 1.715C0.5 8.73502 6.77182 14.5 14.23 14.5C14.6631 14.5 15.0032 14.3125 15.221 14.0243C15.4248 13.7545 15.5 13.4279 15.5 13.1478V10.6561C15.5 9.95572 14.8906 9.44111 14.23 9.44111C13.3246 9.44111 12.4485 9.30453 11.6312 9.05869C11.4132 8.99069 11.18 8.98098 10.9571 9.03018C10.7329 9.07964 10.5239 9.18765 10.3557 9.34633Z" fill="#7C2A90" stroke="white"/>
</svg>
