<svg width="60" height="40" viewBox="0 0 60 40" fill="none" xmlns="http://www.w3.org/2000/svg">
<path d="M59.6626 13.7668L53.5723 2.30457C53.209 1.62834 52.5915 1.11818 51.8513 0.882746C51.111 0.647306 50.3064 0.705189 49.6089 1.04407L43.6344 3.9797H39.1292L30.7628 0.259383C30.1165 -0.0275629 29.3871 -0.0782614 28.7061 0.11642L16.2797 3.67665L10.3911 0.783217C9.69357 0.44446 8.88907 0.38663 8.14883 0.622034C7.4086 0.857439 6.79108 1.36749 6.42774 2.04361L0.337394 13.5061C0.154767 13.8499 0.0436406 14.226 0.0104991 14.6124C-0.0226425 14.9989 0.0228645 15.388 0.144365 15.757C0.265865 16.1259 0.460925 16.4675 0.718164 16.7616C0.975402 17.0557 1.28967 17.2965 1.64262 17.47L7.67529 20.4343L21.1335 30.7766C21.4611 31.0291 21.8393 31.2107 22.2433 31.3094L36.5963 34.8358C36.8298 34.893 37.0695 34.9219 37.3102 34.9218C38.1002 34.9221 38.8581 34.615 39.4183 34.0676L48.531 25.1119C48.5494 25.094 48.5668 25.0753 48.5837 25.0561L52.4157 20.6504L58.3574 17.7309C58.7103 17.5574 59.0246 17.3165 59.2818 17.0224C59.5391 16.7283 59.7341 16.3868 59.8556 16.0178C59.9771 15.6487 60.0226 15.2597 59.9895 14.8732C59.9564 14.4867 59.8452 14.1106 59.6626 13.7668ZM47.6727 23.1069L37.5168 15.8481C37.3454 15.7257 37.1387 15.6604 36.9268 15.6619C36.715 15.6635 36.5092 15.7317 36.3397 15.8565L33.1699 18.193C31.9673 19.0723 30.5083 19.5472 29.0094 19.5472C27.5105 19.5472 26.0515 19.0723 24.849 18.193L23.5065 17.2036C23.393 17.1199 23.2991 17.0132 23.2311 16.8908C23.1632 16.7683 23.1229 16.633 23.1128 16.4938C23.1027 16.3547 23.1232 16.2151 23.1728 16.0845C23.2224 15.9538 23.3 15.8351 23.4003 15.7365L33.092 6.21194C33.2781 6.03 33.5298 5.92752 33.7924 5.92673H38.9125L38.9148 5.92698L38.9182 5.92673H43.268L50.6051 19.7355L47.6727 23.1069ZM2.02933 15.1575C1.9884 15.0346 1.973 14.9048 1.98405 14.776C1.9951 14.6471 2.03237 14.5217 2.09366 14.4072L8.18401 2.94475C8.26863 2.787 8.39554 2.655 8.551 2.56303C8.70646 2.47105 8.88456 2.42261 9.06601 2.42295C9.21839 2.42281 9.3687 2.45764 9.50496 2.52468L14.7871 5.12009L7.77941 18.3086L2.52874 15.7285C2.41084 15.6711 2.30588 15.5909 2.22009 15.4928C2.13431 15.3947 2.06944 15.2807 2.02933 15.1575ZM38.0176 32.6908C37.8964 32.8094 37.7461 32.8953 37.5813 32.9401C37.4164 32.9849 37.2426 32.9872 37.0766 32.9468L22.7237 29.4204C22.589 29.3875 22.463 29.327 22.3539 29.2428L9.46676 19.3395L16.7888 5.55891L29.2604 1.98574C29.4874 1.92067 29.7306 1.93753 29.9461 2.03327L34.3231 3.97971H33.7924C33.402 3.97866 33.0153 4.05372 32.6546 4.20055C32.2939 4.34738 31.9665 4.56306 31.6912 4.8351L21.9996 14.3597C21.6985 14.6555 21.4656 15.0115 21.3166 15.4035C21.1677 15.7955 21.1063 16.2144 21.1364 16.6318C21.1666 17.0492 21.2876 17.4553 21.4914 17.8227C21.6952 18.1901 21.977 18.5102 22.3176 18.7613L23.6601 19.7507C25.2063 20.8812 27.0822 21.4917 29.0094 21.4917C30.9366 21.4917 32.8125 20.8812 34.3587 19.7507L36.9431 17.8456L46.3105 24.5407L38.0176 32.6908ZM57.9707 15.4184C57.9306 15.5416 57.8657 15.6556 57.7799 15.7537C57.6941 15.8518 57.5892 15.9319 57.4713 15.9894L52.2206 18.5695L45.2129 5.38091L50.495 2.78551C50.7275 2.67248 50.9957 2.65315 51.2425 2.73165C51.4892 2.81014 51.695 2.98025 51.816 3.20571L57.9063 14.6679C57.9676 14.7824 58.0049 14.9078 58.016 15.0367C58.027 15.1657 58.0116 15.2954 57.9707 15.4184ZM26.9987 39.2623C26.9673 39.3864 26.9113 39.5031 26.8339 39.6059C26.7565 39.7087 26.6592 39.7955 26.5476 39.8613C26.436 39.9271 26.3123 39.9707 26.1836 39.9895C26.0549 40.0082 25.9237 40.0019 25.7975 39.9708L18.3335 38.1371C17.8792 38.0249 17.4582 37.8093 17.1044 37.5077L11.5195 32.7367C11.421 32.6529 11.3402 32.5509 11.2819 32.4364C11.2235 32.3219 11.1887 32.1972 11.1795 32.0695C11.1702 31.9418 11.1867 31.8136 11.228 31.6921C11.2692 31.5707 11.3345 31.4584 11.4199 31.3618C11.5054 31.2652 11.6094 31.186 11.7261 31.129C11.8427 31.0719 11.9696 31.038 12.0996 31.0293C12.2296 31.0205 12.3601 31.037 12.4835 31.0779C12.607 31.1187 12.7211 31.1831 12.8192 31.2674L18.4043 36.0385C18.5225 36.1389 18.663 36.2108 18.8145 36.2483L26.2778 38.0817C26.5326 38.1444 26.7518 38.3039 26.887 38.5253C27.0222 38.7467 27.0624 39.0118 26.9987 39.2623Z" fill="white"/>
</svg>
