<svg width="25" height="26" viewBox="0 0 25 26" fill="none" xmlns="http://www.w3.org/2000/svg">
<path d="M23.1538 23.3396L23.341 23.8033L23.6538 23.677V23.3396V19.566C23.6538 18.4557 23.4869 17.3 22.7916 16.1393C22.1328 15.0395 21.2896 14.0619 20.0911 13.4027C19.4389 12.9672 18.4834 12.7323 17.6113 12.6C16.7101 12.4632 15.8137 12.4245 15.2418 12.4245H15.0327L14.8858 12.5734L12.354 15.1394L12.1622 15.3338L11.9473 15.1288L9.2572 12.5627L9.11232 12.4245H8.91209C8.26296 12.4245 7.32723 12.463 6.40573 12.5998C5.51348 12.7321 4.55722 12.9668 3.90438 13.4028C2.68529 14.0744 1.99928 15.076 1.36228 16.1393C0.669323 17.296 0.5 18.2984 0.5 19.566V23.3396V23.677L0.812881 23.8033L1 23.3396C0.812881 23.8033 0.81303 23.8033 0.813194 23.8034L0.813602 23.8036L0.8147 23.804L0.818028 23.8053L0.829195 23.8098L0.869474 23.8253C0.904264 23.8386 0.954878 23.8576 1.02101 23.8814C1.15326 23.929 1.34759 23.9961 1.60152 24.076C2.10936 24.2358 2.8557 24.4473 3.8207 24.6583C5.75066 25.0802 8.55582 25.5 12.0769 25.5C15.598 25.5 18.4032 25.0802 20.3332 24.6583C21.2981 24.4473 22.0445 24.2358 22.5523 24.076C22.8063 23.9961 23.0006 23.929 23.1328 23.8814C23.199 23.8576 23.2496 23.8386 23.2844 23.8253L23.3247 23.8098L23.3358 23.8053L23.3391 23.804L23.3402 23.8036L23.3407 23.8034C23.3408 23.8033 23.341 23.8033 23.1538 23.3396ZM12.0376 15.7364L12.1646 15.5115L12.2598 15.7083L13.1593 17.5674V21.781L12.0769 22.9168L10.9945 21.781V17.5842L12.0376 15.7364ZM16.8434 6.81352L16.8439 6.80991C17.097 5.12008 16.7655 3.54822 15.9236 2.38594C15.0748 1.21404 13.7351 0.5 12.0769 0.5C10.4083 0.5 9.07114 1.26043 8.22774 2.44601C7.39097 3.62228 7.05546 5.19188 7.31047 6.81352C7.5573 8.38319 8.09727 9.75609 8.89902 10.7482C9.70758 11.7488 10.7914 12.3679 12.0769 12.3679C13.3625 12.3679 14.4463 11.7488 15.2548 10.7482C16.0566 9.75609 16.5965 8.38318 16.8434 6.81352Z" fill="url(#paint0_linear_33_210)" stroke="white"/>
<defs>
<linearGradient id="paint0_linear_33_210" x1="12.0769" y1="1" x2="12.0769" y2="25" gradientUnits="userSpaceOnUse">
<stop stop-color="#D49123"/>
<stop offset="1" stop-color="#D49123" stop-opacity="0"/>
</linearGradient>
</defs>
</svg>
