<svg width="42" height="39" viewBox="0 0 42 39" fill="none" xmlns="http://www.w3.org/2000/svg">
<path d="M4.64626 20.0826L4.02051 19.4312C3.06554 18.4409 2.30728 17.2645 1.78902 15.9692C1.27076 14.6738 1.00266 13.2849 1.00002 11.8817C0.994686 9.04781 2.07096 6.32777 3.99206 4.31998C5.91317 2.31219 8.52175 1.1811 11.2439 1.17555C13.9661 1.16999 16.579 2.29043 18.5076 4.29037L20.9348 6.85661L23.3619 4.29037C24.3043 3.26503 25.4338 2.4459 26.6843 1.881C27.9348 1.3161 29.281 1.01681 30.6441 1.00069C32.0071 0.984562 33.3595 1.25192 34.622 1.78709C35.8845 2.32225 37.0316 3.11446 37.9962 4.11723C38.9607 5.12001 39.7231 6.31318 40.2389 7.62677C40.7546 8.94036 41.0132 10.3479 40.9995 11.7669C40.9858 13.1859 40.7 14.5878 40.1591 15.8903C39.6181 17.1928 38.8327 18.3698 37.849 19.3522L37.2233 20.0036L20.9348 37L9.6902 25.294L4.64626 20.0826Z" stroke="white" stroke-width="1.91" stroke-miterlimit="10"/>
<path d="M15.5116 18.1481H26.3579" stroke="white" stroke-width="1.91" stroke-miterlimit="10"/>
<path d="M20.9348 12.5022V23.8134" stroke="white" stroke-width="1.91" stroke-miterlimit="10"/>
</svg>
