<svg width="16" height="19" viewBox="0 0 16 19" fill="none" xmlns="http://www.w3.org/2000/svg">
<path opacity="0.6" d="M8.11761 10.7176C7.83107 10.7144 7.55037 10.7947 7.31332 10.9477C7.07626 11.1006 6.89422 11.3189 6.79169 11.5731C6.68916 11.8273 6.67108 12.1053 6.73986 12.3696C6.80865 12.6338 6.96101 12.8717 7.17643 13.0513V14.2941C7.17643 14.5312 7.27559 14.7586 7.4521 14.9263C7.6286 15.094 7.86799 15.1882 8.11761 15.1882C8.36722 15.1882 8.60662 15.094 8.78312 14.9263C8.95962 14.7586 9.05878 14.5312 9.05878 14.2941V13.0513C9.27421 12.8717 9.42656 12.6338 9.49535 12.3696C9.56414 12.1053 9.54605 11.8273 9.44352 11.5731C9.341 11.3189 9.15895 11.1006 8.9219 10.9477C8.68484 10.7947 8.40415 10.7144 8.11761 10.7176ZM12.8235 7.14115V5.35291C12.8235 4.16724 12.3277 3.03013 11.4452 2.19173C10.5626 1.35333 9.36569 0.882324 8.11761 0.882324C6.86953 0.882324 5.67257 1.35333 4.79005 2.19173C3.90752 3.03013 3.41173 4.16724 3.41173 5.35291V7.14115C2.66288 7.14115 1.9447 7.42375 1.41519 7.92679C0.885674 8.42983 0.588196 9.1121 0.588196 9.8235V16.0823C0.588196 16.7937 0.885674 17.476 1.41519 17.979C1.9447 18.4821 2.66288 18.7647 3.41173 18.7647H12.8235C13.5723 18.7647 14.2905 18.4821 14.82 17.979C15.3495 17.476 15.647 16.7937 15.647 16.0823V9.8235C15.647 9.1121 15.3495 8.42983 14.82 7.92679C14.2905 7.42375 13.5723 7.14115 12.8235 7.14115ZM5.29408 5.35291C5.29408 4.64151 5.59156 3.95924 6.12107 3.4562C6.65058 2.95316 7.36876 2.67056 8.11761 2.67056C8.86645 2.67056 9.58463 2.95316 10.1141 3.4562C10.6437 3.95924 10.9411 4.64151 10.9411 5.35291V7.14115H5.29408V5.35291ZM13.7647 16.0823C13.7647 16.3195 13.6655 16.5469 13.489 16.7146C13.3125 16.8822 13.0731 16.9764 12.8235 16.9764H3.41173C3.16211 16.9764 2.92272 16.8822 2.74621 16.7146C2.56971 16.5469 2.47055 16.3195 2.47055 16.0823V9.8235C2.47055 9.58637 2.56971 9.35894 2.74621 9.19126C2.92272 9.02358 3.16211 8.92938 3.41173 8.92938H12.8235C13.0731 8.92938 13.3125 9.02358 13.489 9.19126C13.6655 9.35894 13.7647 9.58637 13.7647 9.8235V16.0823Z" fill="#A4A4A4"/>
</svg>
