<svg width="42" height="42" viewBox="0 0 42 42" fill="none" xmlns="http://www.w3.org/2000/svg">
<path d="M10.075 41H24.4761C25.6704 41.0011 26.8532 40.7661 27.9566 40.3085C29.0601 39.8509 30.0624 39.1797 30.9062 38.3334L39.8664 29.3619C40.5905 28.6395 40.9982 27.6587 41 26.6353C41.0018 25.6119 40.5974 24.6297 39.8759 23.9048C39.1544 23.1798 38.1749 22.7716 37.1527 22.7698C36.1306 22.768 35.1496 23.1728 34.4256 23.8952L24.6093 33.7238H22.8781C23.4063 33.723 23.928 33.6069 24.4068 33.3835C24.8856 33.1602 25.31 32.835 25.6505 32.4307C25.9909 32.0264 26.2392 31.5525 26.3781 31.0423C26.517 30.532 26.5431 29.9976 26.4546 29.4762C26.2728 28.6063 25.793 27.8274 25.0982 27.2743C24.4034 26.7212 23.5373 26.4288 22.6498 26.4476H15.5349L13.7657 25.5714C12.2462 24.8167 10.5424 24.5142 8.85639 24.6999C7.17039 24.8855 5.57298 25.5516 4.25372 26.6191C3.2244 27.4458 2.39655 28.4964 1.83292 29.691C1.26929 30.8857 0.984673 32.1932 1.00064 33.5143V33.7238" stroke="white" stroke-width="1.91" stroke-miterlimit="10"/>
<path d="M22.802 33.724H13.7086" stroke="white" stroke-width="1.91" stroke-miterlimit="10"/>
<path d="M8.26776 1H11.9013C14.308 1 16.6161 1.95724 18.3179 3.66115C20.0197 5.36506 20.9757 7.67605 20.9757 10.0857H17.3422C14.9355 10.0857 12.6274 9.12849 10.9256 7.42459C9.22381 5.72068 8.26776 3.40969 8.26776 1Z" stroke="white" stroke-width="1.91" stroke-miterlimit="10"/>
<path d="M24.6093 11.9143H20.9757C20.9757 10.7212 21.2104 9.53968 21.6665 8.43734C22.1225 7.33501 22.7909 6.33341 23.6335 5.48972C25.3353 3.78581 27.6434 2.82857 30.0501 2.82857H33.6837C33.6837 5.23826 32.7276 7.54925 31.0258 9.25316C29.3241 10.9571 27.016 11.9143 24.6093 11.9143Z" stroke="white" stroke-width="1.91" stroke-miterlimit="10"/>
<path d="M20.9757 17.362V10.0858" stroke="white" stroke-width="1.91" stroke-miterlimit="10"/>
<path d="M12.0345 24.9238C12.4219 22.6845 13.6334 20.6718 15.43 19.2829C17.2266 17.894 19.4778 17.2296 21.7396 17.4209C24.0014 17.6122 26.1094 18.6453 27.6479 20.3163C29.1863 21.9874 30.0434 24.175 30.0501 26.4476C30.0631 27.1403 29.9864 27.8318 29.8218 28.5048" stroke="white" stroke-width="1.91" stroke-miterlimit="10"/>
</svg>
