<svg width="32" height="32" viewBox="0 0 32 32" fill="none" xmlns="http://www.w3.org/2000/svg">
<path d="M17 3.66663V5.99996H19.6333C20.1013 5.99996 20.5587 6.14129 20.9453 6.40396L23.208 7.94263C23.2627 7.97996 23.328 7.99996 23.3947 7.99996H28.864C29.1292 7.99996 29.3836 8.10532 29.5711 8.29285C29.7587 8.48039 29.864 8.73474 29.864 8.99996C29.864 9.26518 29.7587 9.51953 29.5711 9.70707C29.3836 9.8946 29.1292 9.99996 28.864 9.99996H26.76L31.248 20.24C31.338 20.4447 31.3568 20.6737 31.3011 20.8903C31.2455 21.1069 31.1188 21.2986 30.9413 21.4346C30.808 21.5333 30.6707 21.6253 30.528 21.7093C30.1898 21.9111 29.8378 22.0889 29.4747 22.2413C28.2687 22.7457 26.9739 23.0036 25.6667 23C24.36 23.0041 23.0656 22.7466 21.86 22.2426C21.4966 22.0902 21.1446 21.9119 20.8067 21.7093C20.6652 21.6274 20.5285 21.5375 20.3973 21.44L20.3907 21.4346C20.2132 21.2986 20.0865 21.1069 20.0309 20.8903C19.9753 20.6737 19.994 20.4447 20.084 20.24L24.5747 9.99996H23.3933C22.9253 9.99996 22.468 9.85863 22.0813 9.59596L19.8187 8.05729C19.7637 8.01967 19.6986 7.99968 19.632 7.99996H17V27.3333H22.9827C23.2479 27.3333 23.5023 27.4386 23.6898 27.6262C23.8773 27.8137 23.9827 28.0681 23.9827 28.3333C23.9827 28.5985 23.8773 28.8529 23.6898 29.0404C23.5023 29.2279 23.2479 29.3333 22.9827 29.3333H9.01735C8.75213 29.3333 8.49778 29.2279 8.31024 29.0404C8.1227 28.8529 8.01735 28.5985 8.01735 28.3333C8.01735 28.0681 8.1227 27.8137 8.31024 27.6262C8.49778 27.4386 8.75213 27.3333 9.01735 27.3333H15V7.99996H12.3667C12.3001 7.99993 12.2351 8.0199 12.18 8.05729L9.91868 9.59596C9.53201 9.85863 9.07468 9.99996 8.60668 9.99996H7.42535L11.916 20.24C12.0029 20.4389 12.0227 20.6607 11.9725 20.8719C11.9222 21.0831 11.8046 21.2722 11.6373 21.4106C11.5307 21.4973 11.424 21.5786 11.224 21.708C10.8868 21.9263 10.5338 22.1193 10.168 22.2853C8.96377 22.8324 7.65603 23.1143 6.33335 23.112C5.01061 23.1147 3.70278 22.8328 2.49868 22.2853C2.13285 22.1193 1.77988 21.9263 1.44268 21.708C1.30009 21.6173 1.16255 21.5189 1.03068 21.4133C0.864783 21.2733 0.74809 21.0838 0.697702 20.8727C0.647314 20.6615 0.66588 20.4398 0.750679 20.24L5.24001 9.99996H3.13735C2.87213 9.99996 2.61777 9.8946 2.43024 9.70707C2.2427 9.51953 2.13735 9.26518 2.13735 8.99996C2.13735 8.73474 2.2427 8.48039 2.43024 8.29285C2.61777 8.10532 2.87213 7.99996 3.13735 7.99996H8.60668C8.67335 7.99996 8.73868 7.97996 8.79468 7.94263L11.0547 6.40396C11.4413 6.13996 11.9 5.99996 12.368 5.99996H15V3.66663C15 3.40141 15.1054 3.14706 15.2929 2.95952C15.4804 2.77198 15.7348 2.66663 16 2.66663C16.2652 2.66663 16.5196 2.77198 16.7071 2.95952C16.8947 3.14706 17 3.40141 17 3.66663ZM2.92401 20.264C3.9734 20.8226 5.14452 21.1134 6.33335 21.1106C7.52217 21.1134 8.69329 20.8226 9.74268 20.264L6.33335 12.4906L2.92401 20.264ZM22.2707 20.232C22.38 20.2853 22.5027 20.3426 22.6373 20.4C23.344 20.6973 24.3773 21 25.6667 21C26.8421 21.0032 28.0031 20.7407 29.0627 20.232L25.6667 12.4893L22.2707 20.232Z" fill="white"/>
</svg>
