<svg width="34" height="42" viewBox="0 0 34 42" fill="none" xmlns="http://www.w3.org/2000/svg">
<path d="M33 1H1V41H33V1Z" stroke="white" stroke-width="2" stroke-miterlimit="10"/>
<path d="M17 26.4475C21.9069 26.4475 25.8848 22.3797 25.8848 17.3618C25.8848 12.3439 21.9069 8.27612 17 8.27612C12.0931 8.27612 8.11526 12.3439 8.11526 17.3618C8.11526 22.3797 12.0931 26.4475 17 26.4475Z" stroke="white" stroke-width="2" stroke-miterlimit="10"/>
<path d="M17 26.4475C18.9648 26.4475 20.5576 22.3797 20.5576 17.3618C20.5576 12.3439 18.9648 8.27612 17 8.27612C15.0352 8.27612 13.4424 12.3439 13.4424 17.3618C13.4424 22.3797 15.0352 26.4475 17 26.4475Z" stroke="white" stroke-width="2" stroke-miterlimit="10"/>
<path d="M8.11526 17.3619H25.8848" stroke="white" stroke-width="2" stroke-miterlimit="10"/>
<path d="M8.11526 33.7239H25.8848" stroke="white" stroke-width="2" stroke-miterlimit="10"/>
</svg>
