<svg width="32" height="32" viewBox="0 0 32 32" fill="none" xmlns="http://www.w3.org/2000/svg">
<path d="M24 25.3334H8C7.62222 25.3334 7.30533 25.2054 7.04933 24.9494C6.79422 24.6943 6.66666 24.3778 6.66666 24V20.8667C6.66666 20.4223 6.76133 20.0112 6.95066 19.6334C7.13911 19.2556 7.41111 18.9445 7.76666 18.7C8.89999 17.8556 10.2058 17.1943 11.684 16.716C13.1613 16.2387 14.6 16 16 16C17.4 16 18.8391 16.2387 20.3173 16.716C21.7947 17.1943 23.1 17.8556 24.2333 18.7C24.5889 18.9445 24.8613 19.2556 25.0507 19.6334C25.2391 20.0112 25.3333 20.4223 25.3333 20.8667V24C25.3333 24.3778 25.2053 24.6943 24.9493 24.9494C24.6942 25.2054 24.3778 25.3334 24 25.3334ZM9.33333 22.6667H22.6667V20.8667C21.7333 20.1778 20.6778 19.6392 19.5 19.2507C18.3222 18.8614 17.1556 18.6667 16 18.6667C14.8444 18.6667 13.6778 18.8556 12.5 19.2334C11.3222 19.6112 10.2667 20.1445 9.33333 20.8334V22.6667ZM16 14.6667C14.5333 14.6667 13.2778 14.1445 12.2333 13.1C11.1889 12.0556 10.6667 10.8 10.6667 9.33337C10.6667 7.86671 11.1889 6.61115 12.2333 5.56671C13.2778 4.52226 14.5333 4.00004 16 4.00004C17.4667 4.00004 18.7222 4.52226 19.7667 5.56671C20.8111 6.61115 21.3333 7.86671 21.3333 9.33337C21.3333 10.8 20.8111 12.0556 19.7667 13.1C18.7222 14.1445 17.4667 14.6667 16 14.6667ZM16 12C16.7333 12 17.3613 11.7387 17.884 11.216C18.4058 10.6943 18.6667 10.0667 18.6667 9.33337C18.6667 8.60004 18.4058 7.97249 17.884 7.45071C17.3613 6.92804 16.7333 6.66671 16 6.66671C15.2667 6.66671 14.6391 6.92804 14.1173 7.45071C13.5947 7.97249 13.3333 8.60004 13.3333 9.33337C13.3333 10.0667 13.5947 10.6943 14.1173 11.216C14.6391 11.7387 15.2667 12 16 12ZM6.66666 4.00004H3.99999V6.66671C3.99999 7.04449 3.87244 7.36137 3.61733 7.61737C3.36133 7.87249 3.04444 8.00004 2.66666 8.00004C2.28888 8.00004 1.97244 7.87249 1.71733 7.61737C1.46133 7.36137 1.33333 7.04449 1.33333 6.66671V4.00004C1.33333 3.26671 1.59466 2.63871 2.11733 2.11604C2.63911 1.59426 3.26666 1.33337 3.99999 1.33337H6.66666C7.04444 1.33337 7.36133 1.46093 7.61733 1.71604C7.87244 1.97204 8 2.28893 8 2.66671C8 3.04449 7.87244 3.36093 7.61733 3.61604C7.36133 3.87204 7.04444 4.00004 6.66666 4.00004ZM3.99999 30.6667C3.26666 30.6667 2.63911 30.4058 2.11733 29.884C1.59466 29.3614 1.33333 28.7334 1.33333 28V25.3334C1.33333 24.9556 1.46133 24.6392 1.71733 24.384C1.97244 24.128 2.28888 24 2.66666 24C3.04444 24 3.36133 24.128 3.61733 24.384C3.87244 24.6392 3.99999 24.9556 3.99999 25.3334V28H6.66666C7.04444 28 7.36133 28.128 7.61733 28.384C7.87244 28.6392 8 28.9556 8 29.3334C8 29.7112 7.87244 30.0276 7.61733 30.2827C7.36133 30.5387 7.04444 30.6667 6.66666 30.6667H3.99999ZM28 30.6667H25.3333C24.9556 30.6667 24.6391 30.5387 24.384 30.2827C24.128 30.0276 24 29.7112 24 29.3334C24 28.9556 24.128 28.6392 24.384 28.384C24.6391 28.128 24.9556 28 25.3333 28H28V25.3334C28 24.9556 28.128 24.6392 28.384 24.384C28.6391 24.128 28.9556 24 29.3333 24C29.7111 24 30.0276 24.128 30.2827 24.384C30.5387 24.6392 30.6667 24.9556 30.6667 25.3334V28C30.6667 28.7334 30.4058 29.3614 29.884 29.884C29.3613 30.4058 28.7333 30.6667 28 30.6667ZM25.3333 4.00004C24.9556 4.00004 24.6391 3.87204 24.384 3.61604C24.128 3.36093 24 3.04449 24 2.66671C24 2.28893 24.128 1.97204 24.384 1.71604C24.6391 1.46093 24.9556 1.33337 25.3333 1.33337H28C28.7333 1.33337 29.3613 1.59426 29.884 2.11604C30.4058 2.63871 30.6667 3.26671 30.6667 4.00004V6.66671C30.6667 7.04449 30.5387 7.36137 30.2827 7.61737C30.0276 7.87249 29.7111 8.00004 29.3333 8.00004C28.9556 8.00004 28.6391 7.87249 28.384 7.61737C28.128 7.36137 28 7.04449 28 6.66671V4.00004H25.3333Z" fill="white"/>
</svg>
