<svg width="44" height="43" viewBox="0 0 44 43" fill="none" xmlns="http://www.w3.org/2000/svg">
<path d="M37.1905 15.3334V42H6.71429V15.3334" stroke="white" stroke-width="2" stroke-miterlimit="10"/>
<path d="M42.9048 19.1429L21.9524 2L1 19.1429" stroke="white" stroke-width="2" stroke-miterlimit="10"/>
<path d="M14.3333 21.0476H16.2381C17.7536 21.0476 19.2071 21.6496 20.2787 22.7213C21.3504 23.7929 21.9524 25.2464 21.9524 26.7619V28.6667H20.0476C18.5321 28.6667 17.0787 28.0646 16.007 26.993C14.9354 25.9213 14.3333 24.4679 14.3333 22.9524V21.0476Z" stroke="white" stroke-width="2" stroke-miterlimit="10"/>
<path d="M27.6667 24.8572H29.5714V26.7619C29.5714 28.2775 28.9694 29.7309 27.8978 30.8026C26.8261 31.8742 25.3727 32.4762 23.8572 32.4762H21.9524V30.5715C21.9524 29.0559 22.5544 27.6025 23.6261 26.5309C24.6977 25.4592 26.1512 24.8572 27.6667 24.8572Z" stroke="white" stroke-width="2" stroke-miterlimit="10"/>
<path d="M21.9524 42V28.6666" stroke="white" stroke-width="2" stroke-miterlimit="10"/>
</svg>
