<svg width="43" height="43" viewBox="0 0 43 43" fill="none" xmlns="http://www.w3.org/2000/svg">
<path d="M1.5 42V36.7818C1.5 33.5541 2.84129 30.4584 5.22936 28.1744C7.61742 25.8903 10.857 24.6048 14.2368 24.6H25.1649C25.6449 24.6 26.1203 24.6903 26.5637 24.8657C27.0072 25.0411 27.4102 25.2983 27.7496 25.6224C28.0891 25.9466 28.3583 26.3314 28.542 26.755C28.7257 27.1785 28.8203 27.6324 28.8203 28.0909C28.8152 29.0136 28.4279 29.8968 27.7429 30.5476C27.058 31.1983 26.1311 31.5636 25.1649 31.5636H27.0687L35.0459 23.9454C35.7535 23.2847 36.7026 22.913 37.6922 22.9091C38.7021 22.9091 39.6706 23.2922 40.3847 23.9741C41.0988 24.6561 41.4999 25.581 41.4999 26.5454C41.5029 27.0283 41.405 27.5069 41.2122 27.9533C41.0193 28.3997 40.7353 28.805 40.3767 29.1454L32.7613 36.4181C31.3959 37.7176 29.5484 38.4494 27.6209 38.4545H19.6247C19.1471 38.464 18.6762 38.5632 18.2388 38.7465C17.8014 38.9298 17.4061 39.1936 17.0754 39.5229C16.7448 39.8521 16.4854 40.2403 16.3119 40.6654C16.1384 41.0904 16.0544 41.5439 16.0645 42" stroke="white" stroke-width="1.91" stroke-miterlimit="10"/>
<path d="M30.648 12.0547H12.4281V24.6183H30.648V12.0547Z" stroke="white" stroke-width="1.91" stroke-miterlimit="10"/>
<path d="M21.5286 2L10.6005 12.0545H32.4567L21.5286 2Z" stroke="white" stroke-width="1.91" stroke-miterlimit="10"/>
<path d="M23.3373 19.4001H19.7009V24.6183H23.3373V19.4001Z" stroke="white" stroke-width="1.91" stroke-miterlimit="10"/>
</svg>
