<svg width="42" height="34" viewBox="0 0 42 34" fill="none" xmlns="http://www.w3.org/2000/svg">
<path d="M41 1H1V33H41V1Z" stroke="#F5F5F5" stroke-width="1.91" stroke-miterlimit="10" stroke-linecap="square"/>
<path d="M8.27621 23.004H12.8095C13.1688 23.0068 13.5251 22.9313 13.8577 22.7819C14.1904 22.6326 14.4929 22.4123 14.7479 22.1337C15.0028 21.8552 15.2052 21.5239 15.3433 21.1589C15.4813 20.794 15.5524 20.4026 15.5524 20.0073C15.5524 19.612 15.4813 19.2206 15.3433 18.8556C15.2052 18.4907 15.0028 18.1594 14.7479 17.8808C14.4929 17.6023 14.1904 17.382 13.8577 17.2326C13.5251 17.0832 13.1688 17.0078 12.8095 17.0105H10.9048C10.5471 17.0105 10.1929 16.933 9.86242 16.7824C9.53196 16.6318 9.23168 16.4111 8.97876 16.1328C8.72583 15.8545 8.52519 15.5242 8.38831 15.1606C8.25142 14.797 8.18097 14.4074 8.18097 14.0138C8.18075 13.6113 8.25423 13.2129 8.39703 12.8423C8.53983 12.4717 8.74902 12.1366 9.01213 11.8569C9.27523 11.5772 9.58685 11.3587 9.92839 11.2144C10.2699 11.0701 10.6344 11.003 11 11.0171H15.5524" stroke="#F5F5F5" stroke-width="1.91" stroke-miterlimit="10" stroke-linecap="square"/>
<path d="M11.9142 7.0144V11.017" stroke="#F5F5F5" stroke-width="1.91" stroke-miterlimit="10" stroke-linecap="square"/>
<path d="M11.9142 27.0065V23.0039" stroke="#F5F5F5" stroke-width="1.91" stroke-miterlimit="10" stroke-linecap="square"/>
<path d="M22.8096 9.00513H33.7239" stroke="#F5F5F5" stroke-width="1.91" stroke-miterlimit="10" stroke-linecap="square"/>
<path d="M22.8096 17.0105H33.7239" stroke="#F5F5F5" stroke-width="1.91" stroke-miterlimit="10" stroke-linecap="square"/>
<path d="M22.8096 25.0156H33.7239" stroke="#F5F5F5" stroke-width="1.91" stroke-miterlimit="10" stroke-linecap="square"/>
</svg>
