<svg width="25" height="25" viewBox="0 0 25 25" fill="none" xmlns="http://www.w3.org/2000/svg">
<circle cx="12.5" cy="12.5" r="12.5" fill="white"/>
<g clip-path="url(#clip0_976_116)">
<path d="M13 23C7.48629 23 3 18.4359 3 12.8266C3 10.4118 3.84669 8.07133 5.38248 6.23446C5.53472 6.0524 5.7573 5.94824 5.99323 5.94824C6.18732 5.94824 6.37518 6.0198 6.52119 6.14932C6.84972 6.44097 6.88711 6.95363 6.60399 7.29238C5.31392 8.83308 4.60345 10.7986 4.60345 12.8266C4.60345 17.5374 8.37037 21.3687 13 21.3687C17.6305 21.3687 21.3965 17.5365 21.3965 12.8266C21.3965 11.4498 21.0671 10.0812 20.4439 8.87021C20.2409 8.47711 20.3887 7.98529 20.7724 7.77425C20.89 7.70994 21.0217 7.67642 21.1535 7.67642C21.4535 7.67642 21.7251 7.84399 21.864 8.1139C22.6074 9.55859 23 11.188 23 12.8275C23 18.4359 18.5137 23 13 23Z" fill="url(#paint0_linear_976_116)"/>
<path d="M20.2302 5.3749V7.15924C20.2302 7.52064 19.9462 7.8141 19.591 7.8141H14.9542V11.7913L13.8805 12.9389C13.8182 12.9217 13.7514 12.918 13.6882 12.918H13.6713V7.11305C13.6713 6.78154 13.9384 6.50529 14.2642 6.50529H18.9509V6.02976H16.0075C15.8321 6.02976 15.6736 5.9573 15.5561 5.83865C15.443 5.72 15.3682 5.55424 15.3682 5.37581C15.3682 5.01894 15.6522 4.72095 16.0075 4.72095H19.591C19.9462 4.72095 20.2302 5.01804 20.2302 5.3749Z" fill="url(#paint1_linear_976_116)"/>
<path d="M14.9551 3.81156V5.43467C14.9551 5.61764 14.8839 5.77886 14.7717 5.89751C14.5465 6.11037 14.1779 6.19188 13.8778 5.8957C13.7407 5.75984 13.6731 5.56601 13.6731 5.37127V4.30429H8.01335V4.72094H12.7293C13.0258 4.72094 13.26 4.9673 13.26 5.26077V13.0331C13.1887 13.0756 13.1264 13.1264 13.0677 13.1907C13.0009 13.2586 12.9466 13.3392 12.9092 13.4289L11.9779 13.4416V6.02975H7.36965C7.19426 6.02975 7.03133 5.95729 6.9147 5.83864C6.79807 5.71999 6.73041 5.55423 6.73041 5.3758V3.65033C6.73041 3.29075 7.01709 3 7.36965 3H14.153C14.5999 3 14.9551 3.36502 14.9551 3.81156Z" fill="url(#paint2_linear_976_116)"/>
<path d="M13.1229 14.0157C13.154 14.0991 13.2021 14.1779 13.2706 14.2431C13.5155 14.4795 13.9028 14.4686 14.1351 14.2195C14.3292 14.0112 14.3515 13.7023 14.2108 13.4687L17.7649 9.15454L13.9535 13.2332C13.7203 13.1199 13.4345 13.1634 13.2466 13.3636C13.162 13.4542 13.1113 13.5638 13.0899 13.6788L6.40811 13.7811L13.1229 14.0157Z" fill="url(#paint3_linear_976_116)"/>
<path d="M14.9551 17.0891V13.5394C14.9551 13.3429 14.7139 13.2541 14.5901 13.4045L14.5741 13.4244C14.534 13.4733 14.5162 13.5385 14.5305 13.601C14.5937 13.8818 14.5198 14.1789 14.3168 14.3972C14.1583 14.5711 13.9286 14.6689 13.69 14.6689H13.6731V16.879C13.6731 16.9949 13.5805 17.0891 13.4665 17.0891C13.3526 17.0891 13.26 16.9949 13.26 16.879V14.6626C13.26 14.5965 13.2288 14.534 13.1772 14.495C13.1496 14.4742 13.1229 14.4515 13.097 14.428C13.0686 14.4017 13.0436 14.3727 13.0196 14.3419C12.9831 14.2939 12.9261 14.265 12.8665 14.2631L12.1916 14.2396C12.075 14.236 11.9779 14.3311 11.9779 14.4497V17.09H11.9726V17.5529C11.9726 17.7992 12.1684 17.9985 12.4106 17.9985H14.5162C14.7593 17.9985 14.9569 17.7974 14.9569 17.5501V17.09H14.9551V17.0891Z" fill="url(#paint4_linear_976_116)"/>
</g>
<defs>
<linearGradient id="paint0_linear_976_116" x1="3.09179" y1="11.3735" x2="40.5069" y2="22.1286" gradientUnits="userSpaceOnUse">
<stop offset="0.00271466" stop-color="#006633"/>
<stop offset="0.5108" stop-color="#006633"/>
<stop offset="1" stop-color="#006633"/>
</linearGradient>
<linearGradient id="paint1_linear_976_116" x1="3.61254" y1="4.21753" x2="47.1538" y2="19.0265" gradientUnits="userSpaceOnUse">
<stop stop-color="#312783"/>
<stop offset="0.5108" stop-color="#312783"/>
<stop offset="1" stop-color="#312783"/>
</linearGradient>
<linearGradient id="paint2_linear_976_116" x1="3.41473" y1="4.79909" x2="46.956" y2="19.6081" gradientUnits="userSpaceOnUse">
<stop stop-color="#312783"/>
<stop offset="0.5108" stop-color="#312783"/>
<stop offset="1" stop-color="#312783"/>
</linearGradient>
<linearGradient id="paint3_linear_976_116" x1="2.31651" y1="8.028" x2="45.8578" y2="22.837" gradientUnits="userSpaceOnUse">
<stop stop-color="#E30613"/>
<stop offset="0.5108" stop-color="#E5221F"/>
<stop offset="1" stop-color="#E30613"/>
</linearGradient>
<linearGradient id="paint4_linear_976_116" x1="1.19957" y1="11.3122" x2="44.7409" y2="26.1212" gradientUnits="userSpaceOnUse">
<stop stop-color="#312783"/>
<stop offset="0.5108" stop-color="#312783"/>
<stop offset="1" stop-color="#312783"/>
</linearGradient>
<clipPath id="clip0_976_116">
<rect width="20" height="20" fill="white" transform="translate(3 3)"/>
</clipPath>
</defs>
</svg>
