<svg width="26" height="24" viewBox="0 0 26 24" fill="none" xmlns="http://www.w3.org/2000/svg">
<path d="M8.89497 20.4692C8.38243 21.2078 7.91541 22.0469 7.45454 22.9287C10.9637 23.6698 15.039 23.7058 18.5558 22.9431C18.091 22.0583 17.6233 21.2158 17.1098 20.4736C16.487 19.5738 15.8175 18.853 15.041 18.394L14.7954 18.2489V17.9636V13.6141V13.2996L15.0789 13.1634C16.9109 12.2837 18.6738 10.3597 19.9968 7.96291L20.1408 7.70203L20.4388 7.70455C21.5547 7.71402 22.4818 7.54333 23.2311 7.23653L23.2311 7.23652L23.2341 7.23532C24.5268 6.71569 25.2947 5.7387 25.466 4.71468C25.6544 3.5016 25.0437 2.21987 23.7356 1.3667C23.6255 1.76047 23.3883 2.07199 23.1619 2.27925C22.8714 2.55415 22.5516 2.72833 22.2358 2.87174C21.5938 3.16327 20.8077 3.37231 19.899 3.54559C18.0817 3.89603 15.6618 4.09846 13 4.09846C10.3382 4.09846 7.91827 3.89603 6.101 3.54559C5.1923 3.3723 4.40615 3.16327 3.76417 2.87174C3.44838 2.72833 3.12863 2.55415 2.8381 2.27924C2.61168 2.07199 2.37453 1.76047 2.26443 1.36671C0.956356 2.21986 0.345577 3.50155 0.533966 4.71461C0.705313 5.73865 1.47319 6.71568 2.76595 7.23531L2.76894 7.23653C3.51818 7.54333 4.44534 7.71402 5.56123 7.70455L5.85921 7.70203L6.00321 7.96291C7.32618 10.3597 9.08914 12.2837 10.9211 13.1634L11.2046 13.2996V13.6141V17.9636V18.248L10.9602 18.3934C10.1875 18.8527 9.51758 19.5719 8.89497 20.4692ZM13 1.31508C15.2462 1.31508 17.2975 1.15606 18.8327 0.907541C17.2975 0.65902 15.2462 0.5 13 0.5C10.7538 0.5 8.70249 0.65902 7.16731 0.907541C8.70249 1.15606 10.7538 1.31508 13 1.31508Z" fill="url(#paint0_linear_33_216)" stroke="white"/>
<defs>
<linearGradient id="paint0_linear_33_216" x1="13" y1="0" x2="13" y2="24" gradientUnits="userSpaceOnUse">
<stop stop-color="#D49123"/>
<stop offset="1" stop-color="#D49123" stop-opacity="0"/>
</linearGradient>
</defs>
</svg>
